<svg width="109" height="109" viewBox="0 0 109 109" fill="none" xmlns="http://www.w3.org/2000/svg">
<rect x="94.4975" y="63.6396" width="70" height="20" transform="rotate(-135 94.4975 63.6396)" fill="#292929" fill-opacity="0.4"/>
<rect x="45" y="94.4975" width="70" height="20" transform="rotate(-45 45 94.4975)" fill="#292929" fill-opacity="0.3"/>
<rect x="14.1422" y="45" width="70" height="20" transform="rotate(45 14.1422 45)" fill="#292929" fill-opacity="0.2"/>
<rect x="63.6396" y="14.1422" width="70" height="20" transform="rotate(135 63.6396 14.1422)" fill="#292929" fill-opacity="0.5"/>
<path d="M43.504 51.64C43.504 49.464 44.4 47.6933 46.192 46.328C48.0053 44.9627 50.3733 44.28 53.296 44.28C56.24 44.28 58.64 44.9947 60.496 46.424C62.3733 47.8533 63.312 49.3467 63.312 50.904C63.312 51.096 63.2373 51.2667 63.088 51.416C62.96 51.544 62.8107 51.608 62.64 51.608H56.24C55.7493 51.608 55.3013 51.4267 54.896 51.064C54.4907 50.7013 53.9467 50.52 53.264 50.52C52.24 50.52 51.728 50.8187 51.728 51.416C51.728 51.736 51.9733 52.0027 52.464 52.216C52.976 52.4293 53.9147 52.6213 55.28 52.792C58.4587 53.1973 60.72 53.944 62.064 55.032C63.4293 56.0987 64.112 57.7307 64.112 59.928C64.112 62.104 63.1093 63.8853 61.104 65.272C59.12 66.6373 56.5173 67.32 53.296 67.32C50.0747 67.32 47.5467 66.6587 45.712 65.336C43.8773 64.0133 42.96 62.4027 42.96 60.504C42.96 60.312 43.024 60.152 43.152 60.024C43.3013 59.8747 43.472 59.8 43.664 59.8H49.744C50.192 59.8 50.6827 60.0133 51.216 60.44C51.7707 60.8667 52.528 61.08 53.488 61.08C55.088 61.08 55.888 60.7813 55.888 60.184C55.888 59.8 55.6 59.512 55.024 59.32C54.448 59.1067 53.36 58.8933 51.76 58.68C46.256 57.9547 43.504 55.608 43.504 51.64Z" fill="black"/>
</svg>
